<mxfile host="65bd71144e" scale="1" border="5">
    <diagram id="DygxBxDoU2bb-XoBJA6e" name="проект">
        <mxGraphModel dx="752" dy="701" grid="1" gridSize="40" guides="1" tooltips="1" connect="1" arrows="1" fold="1" page="0" pageScale="1" pageWidth="827" pageHeight="1169" background="light-dark(#0000CC,#0000CC)" math="0" shadow="0" adaptiveColors="auto">
            <root>
                <mxCell id="0"/>
                <mxCell id="1" parent="0"/>
                <mxCell id="112" value="" style="group" vertex="1" connectable="0" parent="1">
                    <mxGeometry x="120" y="150" width="635" height="630" as="geometry"/>
                </mxCell>
                <mxCell id="68" value="&lt;font style=&quot;&quot;&gt;запрос клиента&lt;/font&gt;" style="rounded=1;whiteSpace=wrap;html=1;fontFamily=Helvetica;fontSize=15;fontColor=light-dark(#FFFFFF,#FFFFFF);labelBackgroundColor=none;strokeColor=light-dark(#FFFFFF,#FFFFFF);strokeWidth=2;fillColor=none;align=center;labelBorderColor=none;swimlaneLine=1;shadow=0;sketch=1;curveFitting=1;jiggle=2;" parent="112" vertex="1">
                    <mxGeometry x="239" width="120" height="60" as="geometry"/>
                </mxCell>
                <mxCell id="69" value="" style="edgeStyle=none;shape=connector;rounded=1;html=1;strokeColor=light-dark(#FFFFFF,#FFFFFF);strokeWidth=2;align=center;verticalAlign=middle;fontFamily=Helvetica;fontSize=15;fontColor=light-dark(#FFFFFF,#FFFFFF);labelBackgroundColor=default;endArrow=classic;labelBorderColor=none;swimlaneLine=1;shadow=0;sketch=1;curveFitting=1;jiggle=2;" parent="112" source="68" target="3" edge="1">
                    <mxGeometry relative="1" as="geometry"/>
                </mxCell>
                <mxCell id="7" value="" style="edgeStyle=none;html=1;fontFamily=Helvetica;fontSize=15;fontColor=light-dark(#FFFFFF,#FFFFFF);labelBorderColor=none;labelBackgroundColor=none;strokeWidth=2;strokeColor=light-dark(#FFFFFF,#FFFFFF);startArrow=classic;startFill=1;swimlaneLine=1;shadow=0;sketch=1;curveFitting=1;jiggle=2;" parent="112" source="3" target="5" edge="1">
                    <mxGeometry relative="1" as="geometry"/>
                </mxCell>
                <mxCell id="70" value="" style="edgeStyle=none;shape=connector;rounded=1;html=1;strokeColor=light-dark(#FFFFFF,#FFFFFF);strokeWidth=2;align=center;verticalAlign=middle;fontFamily=Helvetica;fontSize=15;fontColor=light-dark(#FFFFFF,#FFFFFF);labelBackgroundColor=default;endArrow=classic;labelBorderColor=none;swimlaneLine=1;shadow=0;sketch=1;curveFitting=1;jiggle=2;" parent="112" source="3" target="33" edge="1">
                    <mxGeometry relative="1" as="geometry"/>
                </mxCell>
                <mxCell id="3" value="&lt;p&gt;&lt;font&gt;саммаризатор&lt;/font&gt;&lt;/p&gt;" style="rounded=0;whiteSpace=wrap;html=1;glass=0;strokeColor=light-dark(#FFFFFF,#FFFFFF);strokeWidth=2;align=center;verticalAlign=middle;fontFamily=Helvetica;fontSize=15;fontColor=light-dark(#FFFFFF,#FFFFFF);labelBorderColor=none;labelBackgroundColor=none;fillColor=none;swimlaneLine=1;shadow=0;sketch=1;curveFitting=1;jiggle=2;" parent="112" vertex="1">
                    <mxGeometry x="239" y="110" width="120" height="60" as="geometry"/>
                </mxCell>
                <mxCell id="9" value="" style="edgeStyle=none;shape=connector;rounded=1;html=1;strokeColor=light-dark(#FFFFFF,#FFFFFF);strokeWidth=2;align=center;verticalAlign=middle;fontFamily=Helvetica;fontSize=15;fontColor=light-dark(#FFFFFF,#FFFFFF);labelBorderColor=none;labelBackgroundColor=none;endArrow=classic;swimlaneLine=1;startArrow=classic;startFill=1;shadow=0;sketch=1;curveFitting=1;jiggle=2;" parent="112" source="5" target="8" edge="1">
                    <mxGeometry relative="1" as="geometry"/>
                </mxCell>
                <mxCell id="98" style="edgeStyle=none;html=1;exitX=1;exitY=0.5;exitDx=0;exitDy=0;entryX=0;entryY=0.5;entryDx=0;entryDy=0;strokeWidth=2;swimlaneLine=1;shadow=0;fontColor=light-dark(#FFFFFF,#FFFFFF);strokeColor=light-dark(#FFFFFF,#FFFFFF);sketch=1;curveFitting=1;jiggle=2;" parent="112" source="5" target="12" edge="1">
                    <mxGeometry relative="1" as="geometry"/>
                </mxCell>
                <mxCell id="101" value="" style="edgeStyle=none;html=1;strokeWidth=2;strokeColor=light-dark(#FFFFFF,#FFFFFF);swimlaneLine=1;sketch=1;curveFitting=1;jiggle=2;shadow=0;fontColor=light-dark(#FFFFFF,#FFFFFF);" edge="1" parent="112" source="5" target="10">
                    <mxGeometry relative="1" as="geometry"/>
                </mxCell>
                <mxCell id="5" value="&lt;font&gt;роутер&lt;/font&gt;" style="rhombus;whiteSpace=wrap;html=1;rounded=1;glass=0;strokeColor=light-dark(#FFFFFF,#FFFFFF);strokeWidth=2;align=center;verticalAlign=middle;fontFamily=Helvetica;fontSize=15;fontColor=light-dark(#FFFFFF,#FFFFFF);labelBorderColor=none;labelBackgroundColor=none;fillColor=none;swimlaneLine=1;shadow=0;sketch=1;curveFitting=1;jiggle=2;" parent="112" vertex="1">
                    <mxGeometry x="239" y="230" width="120" height="120" as="geometry"/>
                </mxCell>
                <mxCell id="72" style="edgeStyle=none;shape=connector;rounded=1;html=1;exitX=0.5;exitY=1;exitDx=0;exitDy=0;entryX=0.5;entryY=0;entryDx=0;entryDy=0;strokeColor=light-dark(#FFFFFF,#FFFFFF);strokeWidth=2;align=center;verticalAlign=middle;fontFamily=Helvetica;fontSize=15;fontColor=light-dark(#FFFFFF,#FFFFFF);labelBackgroundColor=default;endArrow=classic;labelBorderColor=none;swimlaneLine=1;shadow=0;sketch=1;curveFitting=1;jiggle=2;" parent="112" source="8" target="77" edge="1">
                    <mxGeometry relative="1" as="geometry">
                        <mxPoint x="85" y="382.5" as="targetPoint"/>
                    </mxGeometry>
                </mxCell>
                <mxCell id="8" value="&lt;font&gt;финансовый учет&lt;/font&gt;" style="rounded=0;whiteSpace=wrap;html=1;glass=0;strokeColor=light-dark(#FFFFFF,#FFFFFF);strokeWidth=2;align=center;verticalAlign=middle;fontFamily=Helvetica;fontSize=15;fontColor=light-dark(#FFFFFF,#FFFFFF);labelBorderColor=none;labelBackgroundColor=none;fillColor=none;swimlaneLine=1;shadow=0;sketch=1;curveFitting=1;jiggle=2;" parent="112" vertex="1">
                    <mxGeometry x="25" y="260" width="120" height="60" as="geometry"/>
                </mxCell>
                <mxCell id="99" style="edgeStyle=none;html=1;exitX=0.5;exitY=1;exitDx=0;exitDy=0;entryX=0.5;entryY=0;entryDx=0;entryDy=0;spacing=2;strokeWidth=2;strokeColor=light-dark(#FFFFFF,#FFFFFF);swimlaneLine=1;sketch=1;curveFitting=1;jiggle=2;shadow=0;fontColor=light-dark(#FFFFFF,#FFFFFF);" parent="112" source="10" target="88" edge="1">
                    <mxGeometry relative="1" as="geometry"/>
                </mxCell>
                <mxCell id="10" value="&lt;font&gt;уточнение информации&lt;/font&gt;" style="rounded=0;whiteSpace=wrap;html=1;glass=0;strokeColor=light-dark(#FFFFFF,#FFFFFF);strokeWidth=2;align=center;verticalAlign=middle;fontFamily=Helvetica;fontSize=15;fontColor=light-dark(#FFFFFF,#FFFFFF);labelBorderColor=none;labelBackgroundColor=none;fillColor=none;swimlaneLine=1;shadow=0;sketch=1;curveFitting=1;jiggle=2;" parent="112" vertex="1">
                    <mxGeometry x="239" y="405" width="120" height="60" as="geometry"/>
                </mxCell>
                <mxCell id="76" style="edgeStyle=none;shape=connector;rounded=1;html=1;exitX=0.5;exitY=1;exitDx=0;exitDy=0;strokeColor=light-dark(#FFFFFF,#FFFFFF);strokeWidth=2;align=center;verticalAlign=middle;fontFamily=Helvetica;fontSize=15;fontColor=light-dark(#FFFFFF,#FFFFFF);labelBackgroundColor=default;endArrow=none;labelBorderColor=none;swimlaneLine=1;shadow=0;endFill=0;startArrow=classic;startFill=1;entryX=0.497;entryY=1.05;entryDx=0;entryDy=0;entryPerimeter=0;sketch=1;curveFitting=1;jiggle=2;" parent="112" source="12" target="84" edge="1">
                    <mxGeometry relative="1" as="geometry">
                        <mxPoint x="85" y="530" as="targetPoint"/>
                        <Array as="points">
                            <mxPoint x="505" y="530"/>
                            <mxPoint x="84" y="530"/>
                        </Array>
                    </mxGeometry>
                </mxCell>
                <mxCell id="91" style="edgeStyle=none;shape=connector;rounded=1;html=1;exitX=1;exitY=0.5;exitDx=0;exitDy=0;entryX=1;entryY=0.5;entryDx=0;entryDy=0;strokeColor=light-dark(#FFFFFF,#FFFFFF);strokeWidth=2;align=center;verticalAlign=middle;fontFamily=Helvetica;fontSize=15;fontColor=light-dark(#FFFFFF,#FFFFFF);labelBorderColor=none;labelBackgroundColor=none;endArrow=classic;swimlaneLine=1;shadow=0;sketch=1;curveFitting=1;jiggle=2;" parent="112" source="12" target="88" edge="1">
                    <mxGeometry relative="1" as="geometry">
                        <Array as="points">
                            <mxPoint x="585" y="290"/>
                            <mxPoint x="585" y="600"/>
                        </Array>
                    </mxGeometry>
                </mxCell>
                <mxCell id="12" value="&lt;font&gt;финансовая аналитика&lt;/font&gt;" style="rounded=0;whiteSpace=wrap;html=1;glass=0;strokeColor=light-dark(#FFFFFF,#FFFFFF);strokeWidth=2;align=center;verticalAlign=middle;fontFamily=Helvetica;fontSize=15;fontColor=light-dark(#FFFFFF,#FFFFFF);labelBorderColor=none;labelBackgroundColor=none;fillColor=none;swimlaneLine=1;shadow=0;sketch=1;curveFitting=1;jiggle=2;" parent="112" vertex="1">
                    <mxGeometry x="445" y="260" width="120" height="60" as="geometry"/>
                </mxCell>
                <mxCell id="107" style="edgeStyle=none;html=1;exitX=0.5;exitY=1;exitDx=0;exitDy=0;exitPerimeter=0;entryX=0.5;entryY=0;entryDx=0;entryDy=0;strokeWidth=2;sketch=1;curveFitting=1;jiggle=2;startArrow=none;startFill=0;" edge="1" parent="112" source="14" target="8">
                    <mxGeometry relative="1" as="geometry"/>
                </mxCell>
                <mxCell id="14" value="&lt;font&gt;база знаний&lt;/font&gt;" style="shape=cylinder3;whiteSpace=wrap;html=1;boundedLbl=1;backgroundOutline=1;size=15;rounded=1;glass=0;strokeColor=light-dark(#FFFFFF,#FFFFFF);strokeWidth=2;align=center;verticalAlign=middle;fontFamily=Helvetica;fontSize=15;fontColor=light-dark(#FFFFFF,#FFFFFF);labelBorderColor=none;labelBackgroundColor=none;fillColor=none;swimlaneLine=1;shadow=0;sketch=1;curveFitting=1;jiggle=2;" parent="112" vertex="1">
                    <mxGeometry x="50" y="90" width="70" height="100" as="geometry"/>
                </mxCell>
                <mxCell id="74" style="edgeStyle=none;shape=connector;rounded=1;html=1;exitX=0;exitY=0;exitDx=80;exitDy=65;exitPerimeter=0;entryX=1;entryY=0.5;entryDx=0;entryDy=0;strokeColor=light-dark(#FFFFFF,#FFFFFF);strokeWidth=2;align=center;verticalAlign=middle;fontFamily=Helvetica;fontSize=15;fontColor=light-dark(#FFFFFF,#FFFFFF);labelBackgroundColor=default;endArrow=classic;labelBorderColor=none;swimlaneLine=1;shadow=0;sketch=1;curveFitting=1;jiggle=2;" parent="112" source="33" target="10" edge="1">
                    <mxGeometry relative="1" as="geometry">
                        <Array as="points">
                            <mxPoint x="635" y="150"/>
                            <mxPoint x="635" y="435"/>
                            <mxPoint x="435" y="435"/>
                        </Array>
                    </mxGeometry>
                </mxCell>
                <mxCell id="93" style="edgeStyle=none;shape=connector;rounded=1;html=1;exitX=0;exitY=0.5;exitDx=0;exitDy=0;exitPerimeter=0;entryX=1;entryY=0;entryDx=0;entryDy=0;strokeColor=light-dark(#FFFFFF,#FFFFFF);strokeWidth=2;align=center;verticalAlign=middle;fontFamily=Helvetica;fontSize=15;fontColor=light-dark(#FFFFFF,#FFFFFF);labelBackgroundColor=default;endArrow=classic;labelBorderColor=none;swimlaneLine=1;shadow=0;sketch=1;curveFitting=1;jiggle=2;" parent="112" source="33" target="8" edge="1">
                    <mxGeometry relative="1" as="geometry"/>
                </mxCell>
                <mxCell id="33" value="&lt;p style=&quot;margin-top: 0px; margin-bottom: 0px;&quot;&gt;&lt;font&gt;саммари&lt;/font&gt;&lt;/p&gt;" style="shape=note;whiteSpace=wrap;html=1;backgroundOutline=1;darkOpacity=0.05;rounded=1;glass=0;strokeColor=light-dark(#FFFFFF,#FFFFFF);strokeWidth=2;align=center;verticalAlign=middle;fontFamily=Helvetica;fontSize=15;fontColor=light-dark(#FFFFFF,#FFFFFF);labelBorderColor=none;labelBackgroundColor=none;fillColor=none;swimlaneLine=1;textShadow=0;shadow=0;sketch=1;curveFitting=1;jiggle=2;" parent="112" vertex="1">
                    <mxGeometry x="465" y="90" width="80" height="100" as="geometry"/>
                </mxCell>
                <mxCell id="71" style="edgeStyle=none;rounded=1;html=1;exitX=1;exitY=0;exitDx=0;exitDy=0;entryX=0;entryY=1;entryDx=0;entryDy=0;entryPerimeter=0;strokeColor=light-dark(#FFFFFF,#FFFFFF);strokeWidth=2;align=center;verticalAlign=middle;fontFamily=Helvetica;fontSize=15;fontColor=light-dark(#FFFFFF,#FFFFFF);labelBackgroundColor=default;endArrow=classic;startArrow=classic;startFill=1;endFill=1;labelBorderColor=none;swimlaneLine=1;shadow=0;sketch=1;curveFitting=1;jiggle=2;" parent="112" source="5" target="33" edge="1">
                    <mxGeometry relative="1" as="geometry"/>
                </mxCell>
                <mxCell id="77" value="отчет" style="shape=table;startSize=30;container=1;collapsible=0;childLayout=tableLayout;fixedRows=1;rowLines=0;fontStyle=0;strokeColor=light-dark(#FFFFFF,#FFFFFF);fontSize=15;fontFamily=Helvetica;fontColor=light-dark(#FFFFFF,#FFFFFF);labelBackgroundColor=none;strokeWidth=2;fillColor=none;labelBorderColor=none;swimlaneLine=1;whiteSpace=wrap;shadow=0;sketch=1;curveFitting=1;jiggle=2;" parent="112" vertex="1">
                    <mxGeometry y="390" width="170" height="120" as="geometry"/>
                </mxCell>
                <mxCell id="78" value="" style="shape=tableRow;horizontal=0;startSize=0;swimlaneHead=0;swimlaneBody=0;top=0;left=0;bottom=0;right=0;collapsible=0;dropTarget=0;fillColor=none;points=[[0,0.5],[1,0.5]];portConstraint=eastwest;strokeColor=light-dark(#FFFFFF,#FFFFFF);fontSize=15;fontFamily=Helvetica;fontColor=light-dark(#FFFFFF,#FFFFFF);labelBackgroundColor=none;strokeWidth=2;labelBorderColor=none;swimlaneLine=1;whiteSpace=wrap;shadow=0;sketch=1;curveFitting=1;jiggle=2;" parent="77" vertex="1">
                    <mxGeometry y="30" width="170" height="30" as="geometry"/>
                </mxCell>
                <mxCell id="79" value="1" style="shape=partialRectangle;html=1;whiteSpace=wrap;connectable=0;fillColor=none;top=0;left=0;bottom=0;right=0;overflow=hidden;pointerEvents=1;strokeColor=light-dark(#FFFFFF,#FFFFFF);fontSize=15;fontFamily=Helvetica;fontColor=light-dark(#FFFFFF,#FFFFFF);labelBackgroundColor=none;strokeWidth=2;labelBorderColor=none;swimlaneLine=1;shadow=0;sketch=1;curveFitting=1;jiggle=2;" parent="78" vertex="1">
                    <mxGeometry width="38" height="30" as="geometry">
                        <mxRectangle width="38" height="30" as="alternateBounds"/>
                    </mxGeometry>
                </mxCell>
                <mxCell id="80" value="&lt;font style=&quot;&quot;&gt;Value 1&lt;/font&gt;" style="shape=partialRectangle;html=1;whiteSpace=wrap;connectable=0;fillColor=none;top=0;left=0;bottom=0;right=0;align=left;spacingLeft=6;overflow=hidden;strokeColor=light-dark(#FFFFFF,#FFFFFF);fontSize=15;fontFamily=Helvetica;fontColor=light-dark(#FFFFFF,#FFFFFF);labelBackgroundColor=none;strokeWidth=2;labelBorderColor=none;swimlaneLine=1;shadow=0;sketch=1;curveFitting=1;jiggle=2;" parent="78" vertex="1">
                    <mxGeometry x="38" width="132" height="30" as="geometry">
                        <mxRectangle width="132" height="30" as="alternateBounds"/>
                    </mxGeometry>
                </mxCell>
                <mxCell id="81" value="" style="shape=tableRow;horizontal=0;startSize=0;swimlaneHead=0;swimlaneBody=0;top=0;left=0;bottom=0;right=0;collapsible=0;dropTarget=0;fillColor=none;points=[[0,0.5],[1,0.5]];portConstraint=eastwest;strokeColor=light-dark(#FFFFFF,#FFFFFF);fontSize=15;fontFamily=Helvetica;fontColor=light-dark(#FFFFFF,#FFFFFF);labelBackgroundColor=default;strokeWidth=2;labelBorderColor=none;swimlaneLine=1;whiteSpace=wrap;shadow=0;sketch=1;curveFitting=1;jiggle=2;" parent="77" vertex="1">
                    <mxGeometry y="60" width="170" height="30" as="geometry"/>
                </mxCell>
                <mxCell id="82" value="2" style="shape=partialRectangle;html=1;whiteSpace=wrap;connectable=0;fillColor=none;top=0;left=0;bottom=0;right=0;overflow=hidden;strokeColor=light-dark(#FFFFFF,#FFFFFF);fontSize=15;fontFamily=Helvetica;fontColor=light-dark(#FFFFFF,#FFFFFF);labelBackgroundColor=none;strokeWidth=2;labelBorderColor=none;swimlaneLine=1;shadow=0;sketch=1;curveFitting=1;jiggle=2;" parent="81" vertex="1">
                    <mxGeometry width="38" height="30" as="geometry">
                        <mxRectangle width="38" height="30" as="alternateBounds"/>
                    </mxGeometry>
                </mxCell>
                <mxCell id="83" value="&lt;font&gt;Value 2&lt;/font&gt;" style="shape=partialRectangle;html=1;whiteSpace=wrap;connectable=0;fillColor=none;top=0;left=0;bottom=0;right=0;align=left;spacingLeft=6;overflow=hidden;strokeColor=light-dark(#FFFFFF,#FFFFFF);fontSize=15;fontFamily=Helvetica;fontColor=light-dark(#FFFFFF,#FFFFFF);labelBackgroundColor=none;strokeWidth=2;labelBorderColor=none;swimlaneLine=1;shadow=0;sketch=1;curveFitting=1;jiggle=2;" parent="81" vertex="1">
                    <mxGeometry x="38" width="132" height="30" as="geometry">
                        <mxRectangle width="132" height="30" as="alternateBounds"/>
                    </mxGeometry>
                </mxCell>
                <mxCell id="84" value="" style="shape=tableRow;horizontal=0;startSize=0;swimlaneHead=0;swimlaneBody=0;top=0;left=0;bottom=0;right=0;collapsible=0;dropTarget=0;fillColor=none;points=[[0,0.5],[1,0.5]];portConstraint=eastwest;strokeColor=light-dark(#FFFFFF,#FFFFFF);fontSize=15;fontFamily=Helvetica;fontColor=light-dark(#FFFFFF,#FFFFFF);labelBackgroundColor=default;strokeWidth=2;labelBorderColor=none;swimlaneLine=1;whiteSpace=wrap;shadow=0;sketch=1;curveFitting=1;jiggle=2;" parent="77" vertex="1">
                    <mxGeometry y="90" width="170" height="30" as="geometry"/>
                </mxCell>
                <mxCell id="85" value="3" style="shape=partialRectangle;html=1;whiteSpace=wrap;connectable=0;fillColor=none;top=0;left=0;bottom=0;right=0;overflow=hidden;strokeColor=light-dark(#FFFFFF,#FFFFFF);fontSize=15;fontFamily=Helvetica;fontColor=light-dark(#FFFFFF,#FFFFFF);labelBackgroundColor=none;strokeWidth=2;labelBorderColor=none;swimlaneLine=1;shadow=0;sketch=1;curveFitting=1;jiggle=2;" parent="84" vertex="1">
                    <mxGeometry width="38" height="30" as="geometry">
                        <mxRectangle width="38" height="30" as="alternateBounds"/>
                    </mxGeometry>
                </mxCell>
                <mxCell id="86" value="&lt;font&gt;Value 3&lt;/font&gt;" style="shape=partialRectangle;html=1;whiteSpace=wrap;connectable=0;fillColor=none;top=0;left=0;bottom=0;right=0;align=left;spacingLeft=6;overflow=hidden;strokeColor=light-dark(#FFFFFF,#FFFFFF);fontSize=15;fontFamily=Helvetica;fontColor=light-dark(#FFFFFF,#FFFFFF);labelBackgroundColor=none;strokeWidth=2;labelBorderColor=none;swimlaneLine=1;shadow=0;sketch=1;curveFitting=1;jiggle=2;" parent="84" vertex="1">
                    <mxGeometry x="38" width="132" height="30" as="geometry">
                        <mxRectangle width="132" height="30" as="alternateBounds"/>
                    </mxGeometry>
                </mxCell>
                <mxCell id="88" value="&lt;font&gt;ответ&lt;/font&gt;" style="rounded=1;whiteSpace=wrap;html=1;glass=0;strokeColor=light-dark(#FFFFFF,#FFFFFF);strokeWidth=2;align=center;verticalAlign=middle;fontFamily=Helvetica;fontSize=15;fontColor=light-dark(#FFFFFF,#FFFFFF);labelBorderColor=none;labelBackgroundColor=none;fillColor=none;swimlaneLine=1;shadow=0;sketch=1;curveFitting=1;jiggle=2;" parent="112" vertex="1">
                    <mxGeometry x="239" y="570" width="120" height="60" as="geometry"/>
                </mxCell>
            </root>
        </mxGraphModel>
    </diagram>
</mxfile>